<svg width="28" height="38" viewBox="0 0 28 38" fill="none" xmlns="http://www.w3.org/2000/svg">
<path d="M16.8522 0.777832H4.72237C3.5068 0.777832 2.34101 1.26072 1.48147 2.12026C0.621923 2.9798 0.139038 4.14559 0.139038 5.36117V32.8612C0.139038 34.0767 0.621923 35.2425 1.48147 36.1021C2.34101 36.9616 3.5068 37.4445 4.72237 37.4445H23.0557C24.2713 37.4445 25.4371 36.9616 26.2966 36.1021C27.1562 35.2425 27.639 34.0767 27.639 32.8612V11.5647C27.6389 10.957 27.3974 10.3742 26.9676 9.9445L18.4724 1.44929C18.0427 1.01949 17.4599 0.777962 16.8522 0.777832V0.777832ZM17.3265 8.79867V4.21533L24.2015 11.0903H19.6182C19.0104 11.0903 18.4275 10.8489 17.9978 10.4191C17.568 9.98935 17.3265 9.40645 17.3265 8.79867ZM20.764 19.1112C20.764 20.9345 20.0397 22.6832 18.7504 23.9725C17.4611 25.2618 15.7124 25.9862 13.889 25.9862C12.0657 25.9862 10.317 25.2618 9.02768 23.9725C7.73837 22.6832 7.01404 20.9345 7.01404 19.1112C7.01404 17.2878 7.73837 15.5391 9.02768 14.2498C10.317 12.9605 12.0657 12.2362 13.889 12.2362C15.7124 12.2362 17.4611 12.9605 18.7504 14.2498C20.0397 15.5391 20.764 17.2878 20.764 19.1112ZM25.3474 32.2997V32.8612C25.3474 33.469 25.1059 34.0518 24.6762 34.4816C24.2464 34.9114 23.6635 35.1528 23.0557 35.1528H4.72237C4.11458 35.1528 3.53169 34.9114 3.10192 34.4816C2.67215 34.0518 2.4307 33.469 2.4307 32.8612V32.2997C2.4307 32.2997 4.72237 28.2778 13.889 28.2778C23.0557 28.2778 25.3474 32.2997 25.3474 32.2997Z" fill="#2577BC"/>
</svg>
