<svg width="30" height="35" viewBox="0 0 30 35" fill="none" xmlns="http://www.w3.org/2000/svg">
<path d="M14.3611 34.8182V29.3182C6.70692 28.9209 0.611084 22.5654 0.611084 14.8196C0.611084 6.814 7.11942 0.305664 15.125 0.305664C23.1305 0.305664 29.6389 6.814 29.6389 14.8196C29.6389 22.3821 24.3833 29.9904 16.5458 33.764L14.3611 34.8182ZM15.125 3.36122C8.79997 3.36122 3.66664 8.49455 3.66664 14.8196C3.66664 21.1446 8.79997 26.2779 15.125 26.2779H17.4166V29.7918C22.9778 26.2779 26.5833 20.5029 26.5833 14.8196C26.5833 8.49455 21.45 3.36122 15.125 3.36122ZM13.5972 20.9307H16.6528V23.9862H13.5972V20.9307ZM16.6528 18.639H13.5972C13.5972 13.6737 18.1805 14.0557 18.1805 11.0001C18.1805 9.31955 16.8055 7.94455 15.125 7.94455C13.4444 7.94455 12.0694 9.31955 12.0694 11.0001H9.01386C9.01386 7.62372 11.7486 4.889 15.125 4.889C18.5014 4.889 21.2361 7.62372 21.2361 11.0001C21.2361 14.8196 16.6528 15.2015 16.6528 18.639Z" fill="#2577BC"/>
</svg>
