<svg width="28" height="31" viewBox="0 0 28 31" fill="none" xmlns="http://www.w3.org/2000/svg">
<path d="M27.6389 27.3334V4.00008C27.6389 3.11603 27.317 2.26818 26.744 1.64306C26.1709 1.01794 25.3937 0.666748 24.5834 0.666748H3.19447C2.38409 0.666748 1.6069 1.01794 1.03387 1.64306C0.46084 2.26818 0.138916 3.11603 0.138916 4.00008V27.3334C0.138916 28.2175 0.46084 29.0653 1.03387 29.6904C1.6069 30.3156 2.38409 30.6667 3.19447 30.6667H24.5834C25.3937 30.6667 26.1709 30.3156 26.744 29.6904C27.317 29.0653 27.6389 28.2175 27.6389 27.3334ZM9.30558 25.6667H6.25003V15.6667H9.30558V25.6667ZM15.4167 25.6667H12.3611V7.33342H15.4167V25.6667ZM21.5278 25.6667H18.4723V12.3334H21.5278V25.6667Z" fill="#2577BC"/>
</svg>
